<svg width="96" height="113" viewBox="0 0 96 113" fill="none" xmlns="http://www.w3.org/2000/svg">
<g clip-path="url(#clip0_18_319)">
<path d="M96 59.6243V79.7095C96 82.8606 93.4402 85.4199 90.289 85.4199C87.1379 85.4199 84.5781 82.8606 84.5781 79.7095V59.6243C84.5781 55.0012 80.8159 51.2386 76.1915 51.2386C71.567 51.2386 67.8122 55.0012 67.8122 59.6243V92.4766C67.8122 103.394 58.9206 112.286 48.0012 112.286C37.0819 112.286 28.3651 103.57 28.1976 92.7996C28.1902 92.6911 28.1902 92.5851 28.1902 92.4766V46.8571C28.1902 42.234 24.433 38.4715 19.811 38.4715C15.189 38.4715 11.4244 42.234 11.4244 46.8571V83.0677C11.4244 86.2188 8.86457 88.7781 5.71344 88.7781C2.5623 88.7781 0 86.2212 0 83.0701V46.8571C0 35.9392 8.88428 27.0481 19.811 27.0481C30.7377 27.0481 39.6146 35.9368 39.6146 46.8571V92.4741C39.6146 97.0972 43.3768 100.86 48.0012 100.86C52.6257 100.86 56.3878 97.0972 56.3878 92.4741V59.6243C56.3878 48.7064 65.2721 39.8152 76.1915 39.8152C87.1108 39.8152 96.0025 48.7039 96.0025 59.6243H96Z" fill="white"/>
<path d="M19.7492 21.8999C25.7975 21.8999 30.7006 16.9974 30.7006 10.95C30.7006 4.90246 25.7975 0 19.7492 0C13.7009 0 8.79785 4.90246 8.79785 10.95C8.79785 16.9974 13.7009 21.8999 19.7492 21.8999Z" fill="white"/>
<path d="M76.9055 34.699C82.9537 34.699 87.8568 29.7965 87.8568 23.749C87.8568 17.7015 82.9537 12.7991 76.9055 12.7991C70.8572 12.7991 65.9541 17.7015 65.9541 23.749C65.9541 29.7965 70.8572 34.699 76.9055 34.699Z" fill="white"/>
</g>
<defs>
<clipPath id="clip0_18_319">
<rect width="96" height="112.286" fill="white"/>
</clipPath>
</defs>
</svg>
