<svg width="531" height="237" viewBox="0 0 531 237" fill="none" xmlns="http://www.w3.org/2000/svg">
<path d="M30.5507 -226.458L108.571 -309.807C120.811 -322.883 141.415 -323.524 154.539 -311.238C167.664 -298.953 168.384 -278.352 156.143 -265.276L78.1233 -181.927C60.165 -162.742 61.2188 -132.461 80.4798 -114.431C99.7407 -96.4019 129.995 -97.3769 147.953 -116.562L275.567 -252.891C317.977 -298.197 389.548 -300.427 435.027 -257.856C480.507 -215.284 482.955 -145.13 441.817 -99.7839C441.426 -99.3049 441.015 -98.865 440.593 -98.4148L263.386 90.895C245.428 110.08 246.461 140.342 265.712 158.362C284.963 176.382 315.258 175.445 333.216 156.261L473.874 5.99559C486.115 -7.08072 506.718 -7.72125 519.843 4.56422C532.967 16.8497 533.707 37.4499 521.467 50.5262L380.799 200.801C338.389 246.108 266.848 248.367 221.338 205.766C175.828 163.166 173.384 91.6711 215.803 46.3542L393.001 -142.945C410.959 -162.13 409.905 -192.412 390.644 -210.441C371.383 -228.471 341.098 -227.524 323.14 -208.34L195.536 -72.0208C153.126 -26.7141 81.5855 -24.4556 36.1062 -67.0273C-9.37302 -109.599 -11.8793 -181.151 30.5404 -226.468L30.5507 -226.458Z" fill="white" fill-opacity="0.24"/>
</svg>
