<svg width="685" height="462" viewBox="0 0 685 462" fill="none" xmlns="http://www.w3.org/2000/svg">
<path d="M577.451 49.8251L674.006 160.691C689.155 178.084 687.277 204.562 669.819 219.767C652.362 234.971 625.876 233.195 610.728 215.801L514.172 104.936C491.948 79.4173 453.017 76.801 427.397 99.1139C401.778 121.427 399.064 160.312 421.289 185.831L579.22 367.168C631.705 427.432 625.187 519.412 564.693 572.097C504.199 624.783 414.007 618.73 361.304 560.091C360.742 559.528 360.232 558.942 359.711 558.344L140.404 306.534C118.179 281.016 79.2763 278.376 53.6701 300.677C28.0639 322.978 25.2955 361.911 47.5202 387.429L221.595 587.303C236.744 604.697 234.866 631.175 217.408 646.379C199.95 661.583 173.463 659.833 158.315 642.439L-15.7719 442.552C-68.2576 382.287 -61.7804 290.344 -1.24552 237.622C59.2894 184.901 151.199 191.134 203.696 251.412L422.991 503.207C445.216 528.726 484.146 531.342 509.766 509.029C535.386 486.716 538.14 447.795 515.916 422.277L357.996 240.953C305.511 180.689 311.988 88.7451 372.482 36.0595C432.976 -16.6261 524.967 -10.4648 577.464 49.8132L577.451 49.8251Z" fill="white" fill-opacity="0.24"/>
</svg>
